<?xml version="1.0" standalone="no"?><!DOCTYPE svg PUBLIC "-//W3C//DTD SVG 1.1//EN" "http://www.w3.org/Graphics/SVG/1.1/DTD/svg11.dtd"><svg t="1761150843377" class="icon" viewBox="0 0 1431 1024" version="1.1" xmlns="http://www.w3.org/2000/svg" p-id="4614" xmlns:xlink="http://www.w3.org/1999/xlink" width="279.4921875" height="200"><path d="M718.63856 762.086293c-112.532986 0-226.301788-28.778082-338.189938-85.458403L257.438125 618.064082l35.196674-150.540008 87.843585 41.846273c112.504641 56.958096 226.00984 85.74043 338.10207 85.74043 112.004362 0 223.302949-28.605181 330.716934-84.976548l89.578263-42.610155L1174.011385 618.064082l-124.715414 59.385796c-106.708209 55.973128-218.301577 84.636415-330.658828 84.636415z" fill="#998073" p-id="4615"></path><path d="M718.580454 595.112194c-112.062468 0-225.804343-28.84044-338.10207-85.74043l-87.843585-41.846273 88.814381-380.566251c4.061754-24.427215 21.100998-46.850479 45.319881-58.035184 9.122649-4.23749 19.157988-6.354817 29.870759-6.354818 15.391016 0 30.810376 4.413225 44.582926 12.712469l72.129443 43.554024C615.405376 104.321609 664.638203 117.738437 715.69641 117.738437c51.087969 0 100.292451-13.418245 142.373983-38.843183l72.217311-43.613547c13.419662-8.181615 29.251433-12.712469 44.436952-12.712469 10.770877 0 20.835977 2.176851 29.95721 6.415758 24.486738 11.2995 41.20002 33.724182 45.968968 61.50454l88.165294 377.034538-89.460634 42.61299c-107.119203 56.192797-218.770677 84.975131-330.77504 84.97513z" fill="#C1A290" p-id="4616"></path><path d="M715.69641 1001.396748c-382.184718 0-693.095993-182.278664-693.095993-406.284554 0-90.567483 61.770978-146.833976 161.208845-146.833976 25.721137 0 53.206714 3.766972 81.752371 11.181871l27.250318 7.122951-32.077371 137.120346c-1.882069 8.183032 2.324242 17.069005 9.887948 20.599301l109.826094 52.323785c111.769104 56.680321 225.421694 85.224562 338.338746 85.224562 112.622271 0 223.801811-28.368505 330.51002-84.399739l111.294335-53.029561c7.712515-3.649343 12.00811-12.47721 10.065101-20.658825l-32.074537-137.179869 27.309841-7.121534c28.484717-7.416315 56.029817-11.181871 81.691431-11.181871 99.467629 0 161.208845 56.265076 161.208844 146.832559 0 224.00589-310.938203 406.284554-693.095993 406.284554z" fill="#C1A290" p-id="4617"></path><path d="M718.580454 617.712611h-0.029761c-115.652288 0-232.601333-29.605739-347.635714-87.888936l-104.442073-49.733106 92.640877-396.457546c5.297571-32.135477 27.132689-60.798764 58.120218-75.218984 29.428586-13.537291 65.861076-10.535618 95.672312 7.533945l72.128026 43.554023c78.868327 47.73199 182.51534 47.73199 261.322726 0l72.188966-43.583785c29.751712-17.980278 66.273488-21.011713 95.553266-7.504183 31.01729 14.42022 52.88217 43.053745 58.502867 76.631953l92.377274 395.074339-104.972114 49.94002c-110.560215 58.046522-225.715058 87.652261-341.42687 87.65226z m-399.812107-162.781959l72.068502 34.34209c109.15008 55.281525 219.241195 83.239036 327.713844 83.239035h0.029761c108.355019 0 216.415257-27.899405 321.211635-82.856386l72.863564-34.696395L1028.284258 93.933382c-3.443846-20.305937-15.743904-36.402729-33.196976-44.496475-15.447705-7.209401-36.255338-5.090656-53.145773 5.178524L869.75396 98.199216c-92.905897 56.238148-215.149679 56.208387-308.115099-0.028344l-72.098265-43.555441c-16.951376-10.240836-37.639962-12.358164-53.295998-5.178524-17.392131 8.09233-29.692189 24.190539-32.811492 43.053745l-84.664759 362.44z" fill="#826A5D" p-id="4618"></path><path d="M715.69641 1023.998583c-394.633583 0-715.69641-192.401871-715.69641-428.886389 0-102.897303 72.159205-169.404632 183.839024-169.404631 36.255338 0 75.248746 6.856513 115.917308 20.364043l19.600161 6.505042-35.814582 152.892595 107.266594 51.087968c218.240637 110.591393 439.305794 110.473764 648.983584 0.354305l108.060238-51.442273-35.728132-152.894012 19.571817-6.505043c40.66998-13.506112 79.632209-20.362626 115.857785-20.362625 111.681236 0 183.839024 66.507329 183.839024 169.404631 0 236.484518-321.062827 428.887806-715.696411 428.887806zM183.839024 470.911231c-86.813266 0-138.636772 46.438068-138.636773 124.202381 0 211.589621 300.786652 383.684137 670.494159 383.684137s670.495576-172.094516 670.495576-383.684137c0-77.764312-51.823506-124.20238-138.638189-124.202381-25.60209 0-53.089084 4.060337-81.929524 12.064799l27.047656 115.608355c4.32394 18.659127-5.063729 38.140241-22.338232 46.262332l-110.326373 52.499521c-221.035396 116.066117-458.904538 116.538051-689.123524-0.235259l-109.912544-52.323785c-17.186634-8.120674-26.574304-27.543683-22.248947-46.202809l27.074583-115.608355c-28.84044-8.004462-56.326016-12.064799-81.957868-12.064799z" fill="#826A5D" p-id="4619"></path></svg>